<svg width="22" height="22" viewBox="0 0 22 22" fill="none" xmlns="http://www.w3.org/2000/svg">
<g clip-path="url(#clip0_334_1551)">
<path d="M19.6429 2.35665H17.2857V0.785241C17.2857 0.351287 16.9339 -0.000488281 16.5 -0.000488281C16.066 -0.000488281 15.7143 0.351287 15.7143 0.785241V2.35665H6.28569V0.785241C6.28569 0.351287 5.93392 -0.000488281 5.50001 -0.000488281C5.0661 -0.000488281 4.71428 0.351287 4.71428 0.785241V2.35665H2.35714C1.05533 2.35665 0 3.41198 0 4.71379V19.6424C0 20.9442 1.05533 21.9995 2.35714 21.9995H19.6429C20.9447 21.9995 22 20.9442 22 19.6424V4.71379C22 3.41198 20.9447 2.35665 19.6429 2.35665ZM20.4285 19.6424C20.4285 20.0763 20.0768 20.4281 19.6428 20.4281H2.35714C1.92319 20.4281 1.57141 20.0763 1.57141 19.6424V9.42808H20.4285V19.6424ZM20.4285 7.85666H1.57141V4.71379C1.57141 4.27984 1.92319 3.92806 2.35714 3.92806H4.71428V5.49948C4.71428 5.93343 5.06606 6.28521 5.50001 6.28521C5.93396 6.28521 6.28574 5.93343 6.28574 5.49948V3.92806H15.7143V5.49948C15.7143 5.93343 16.0661 6.28521 16.5 6.28521C16.934 6.28521 17.2858 5.93343 17.2858 5.49948V3.92806H19.6429C20.0769 3.92806 20.4286 4.27984 20.4286 4.71379V7.85666H20.4285Z" fill="#89C249"/>
<path d="M6.28683 10.9995H4.71542C4.28146 10.9995 3.92969 11.3513 3.92969 11.7852C3.92969 12.2192 4.28146 12.571 4.71542 12.571H6.28683C6.72078 12.571 7.07256 12.2192 7.07256 11.7852C7.07256 11.3513 6.72078 10.9995 6.28683 10.9995Z" fill="#89C249"/>
<path d="M11.7868 10.9995H10.2154C9.78146 10.9995 9.42969 11.3513 9.42969 11.7852C9.42969 12.2192 9.78146 12.571 10.2154 12.571H11.7868C12.2208 12.571 12.5726 12.2192 12.5726 11.7852C12.5726 11.3513 12.2208 10.9995 11.7868 10.9995Z" fill="#89C249"/>
<path d="M17.2868 10.9995H15.7154C15.2815 10.9995 14.9297 11.3513 14.9297 11.7852C14.9297 12.2192 15.2815 12.571 15.7154 12.571H17.2868C17.7208 12.571 18.0726 12.2192 18.0726 11.7852C18.0725 11.3513 17.7207 10.9995 17.2868 10.9995Z" fill="#89C249"/>
<path d="M6.28683 14.1426H4.71542C4.28146 14.1426 3.92969 14.4944 3.92969 14.9283C3.92969 15.3623 4.28146 15.714 4.71542 15.714H6.28683C6.72078 15.714 7.07256 15.3623 7.07256 14.9283C7.07256 14.4944 6.72078 14.1426 6.28683 14.1426Z" fill="#89C249"/>
<path d="M11.7868 14.1426H10.2154C9.78146 14.1426 9.42969 14.4944 9.42969 14.9283C9.42969 15.3623 9.78146 15.714 10.2154 15.714H11.7868C12.2208 15.714 12.5726 15.3623 12.5726 14.9283C12.5726 14.4944 12.2208 14.1426 11.7868 14.1426Z" fill="#89C249"/>
<path d="M17.2868 14.1426H15.7154C15.2815 14.1426 14.9297 14.4944 14.9297 14.9283C14.9297 15.3623 15.2815 15.714 15.7154 15.714H17.2868C17.7208 15.714 18.0726 15.3623 18.0726 14.9283C18.0725 14.4944 17.7207 14.1426 17.2868 14.1426Z" fill="#89C249"/>
<path d="M6.28683 17.2852H4.71542C4.28146 17.2852 3.92969 17.6369 3.92969 18.0709C3.92969 18.5048 4.28146 18.8566 4.71542 18.8566H6.28683C6.72078 18.8566 7.07256 18.5048 7.07256 18.0708C7.07256 17.6369 6.72078 17.2852 6.28683 17.2852Z" fill="#89C249"/>
<path d="M11.7868 17.2852H10.2154C9.78146 17.2852 9.42969 17.6369 9.42969 18.0709C9.42969 18.5048 9.78146 18.8566 10.2154 18.8566H11.7868C12.2208 18.8566 12.5726 18.5048 12.5726 18.0709C12.5726 17.6369 12.2208 17.2852 11.7868 17.2852Z" fill="#89C249"/>
<path d="M17.2868 17.2852H15.7154C15.2815 17.2852 14.9297 17.6369 14.9297 18.0709C14.9297 18.5048 15.2815 18.8566 15.7154 18.8566H17.2868C17.7208 18.8566 18.0726 18.5048 18.0726 18.0709C18.0726 17.6369 17.7207 17.2852 17.2868 17.2852Z" fill="#89C249"/>
</g>
<defs>
<clipPath id="clip0_334_1551">
<rect width="22" height="22" fill="white" transform="translate(0 -0.000488281)"/>
</clipPath>
</defs>
</svg>
